<?xml version="1.0" encoding="UTF-8"?>
<svg xmlns="http://www.w3.org/2000/svg" viewBox="0 0 64 64" width="512" height="512"><g id="outline"><path d="M16,51a3,3,0,1,0-3-3A3,3,0,0,0,16,51Zm0-4a1,1,0,1,1-1,1A1,1,0,0,1,16,47Z"/><rect x="14" y="42" width="2" height="2"/><path d="M5,49a3,3,0,0,0,2.816-2H9.059a8.956,8.956,0,0,0,1.916,4.611l-.69.69A2.951,2.951,0,0,0,9,52a3,3,0,1,0,3,3,2.951,2.951,0,0,0-.3-1.285l.69-.69A8.956,8.956,0,0,0,17,54.941v1.243a3,3,0,1,0,2,0V54.941a8.959,8.959,0,0,0,5.144-2.383L25.3,53.715A2.951,2.951,0,0,0,25,55a3,3,0,1,0,3-3,2.951,2.951,0,0,0-1.285.3l-1.262-1.262A8.944,8.944,0,0,0,26.941,47h1.243a3,3,0,1,0,0-2H26.941a8.953,8.953,0,0,0-1.916-4.611l8.1-8.1a3.076,3.076,0,0,0,3.581-.579l1.885-1.885,3.85-1.939a.979.979,0,0,0,.265-.176L54,16.414l1.293,1.293,1.414-1.414L54.414,14,56,12.414l.293.293a3.121,3.121,0,0,0,4.414-4.414l-5-5a3.121,3.121,0,0,0-4.414,4.414L51.586,8,50,9.586,47.707,7.293,46.293,8.707,47.586,10,36.293,21.293a.979.979,0,0,0-.176.265l-1.939,3.85-1.885,1.885a3.079,3.079,0,0,0-.582,3.58l-8.1,8.1A8.956,8.956,0,0,0,19,37.059V35.816a3,3,0,1,0-2,0v1.243a8.956,8.956,0,0,0-4.611,1.916l-.69-.69A2.951,2.951,0,0,0,12,37a3,3,0,1,0-3,3,2.951,2.951,0,0,0,1.285-.3l.69.69A8.956,8.956,0,0,0,9.059,45H7.816A2.995,2.995,0,1,0,5,49Zm4,7a1,1,0,1,1,1-1A1,1,0,0,1,9,56Zm19-2a1,1,0,1,1-1,1A1,1,0,0,1,28,54Zm3-9a1,1,0,1,1-1,1A1,1,0,0,1,31,45ZM52.709,4.707a1.12,1.12,0,0,1,1.584,0l5,5a1.12,1.12,0,0,1,0,1.586,1.147,1.147,0,0,1-1.584,0l-5-5a1.12,1.12,0,0,1,0-1.586ZM53,9.414,54.586,11,53,12.586,51.414,11Zm-4,2L52.586,15,50.5,17.086l-1.793-1.793-1.414,1.414L49.086,18.5,48,19.586l-1.293-1.293-1.414,1.414L46.586,21,45.5,22.086l-1.793-1.793-1.414,1.414L44.086,23.5,42,25.586,38.414,22ZM37.274,23.688l3.038,3.038L38.2,27.783l-1.98-1.98Zm-3.567,5.019L35,27.414,36.586,29l-1.293,1.293a1.146,1.146,0,0,1-1.586,0,1.12,1.12,0,0,1,0-1.584ZM9,38a1,1,0,1,1,1-1A1,1,0,0,1,9,38Zm9,22a1,1,0,1,1,1-1A1,1,0,0,1,18,60Zm0-28a1,1,0,1,1-1,1A1,1,0,0,1,18,32Zm0,7a6.953,6.953,0,0,1,4.184,1.4l-.652.652A3,3,0,1,0,24,44a2.972,2.972,0,0,0-.692-1.894l.29-.29a6.961,6.961,0,0,1-.6,9.073V49H21v2h1.889A7,7,0,1,1,18,39Zm4,5a1,1,0,1,1-1-1A1,1,0,0,1,22,44ZM5,45a1,1,0,1,1-1,1A1,1,0,0,1,5,45Z"/><path d="M30.445,18.168l-1.906,1.271A2.96,2.96,0,0,0,27,19V17H25v2.1a4.961,4.961,0,0,0-1.753.732l-1.54-1.54-1.414,1.414,1.54,1.54a4.972,4.972,0,0,0-.409.753H19v2h2v1a2.9,2.9,0,0,0,.037.363l-1.484.742.894,1.79,1.476-.739a3.005,3.005,0,0,0,1.077.66V30h2V27.816a3.007,3.007,0,0,0,.894-.508l1.4,1.4,1.414-1.414-1.761-1.761A3.008,3.008,0,0,0,27,25a2.96,2.96,0,0,0,1.539-.439l1.906,1.271,1.11-1.664-1.741-1.161a2.819,2.819,0,0,0,0-2.014l1.741-1.161ZM27,23H26a1,1,0,0,0-1,1v1a1,1,0,0,1-2,0V24a3,3,0,0,1,3-3h1a1,1,0,0,1,0,2Z"/><path d="M46,41h2V39H45.576a4.972,4.972,0,0,0-.409-.753l1.54-1.54-1.414-1.414-1.54,1.54A4.961,4.961,0,0,0,42,36.1V34H40v2a2.96,2.96,0,0,0-1.539.439l-1.906-1.271-1.11,1.664,1.742,1.161a2.8,2.8,0,0,0,0,2.014l-1.742,1.161,1.11,1.664,1.906-1.271A2.96,2.96,0,0,0,40,42a3.008,3.008,0,0,0,.054.532l-1.761,1.761,1.414,1.414,1.4-1.4a3.007,3.007,0,0,0,.894.508V47h2V44.816a3.005,3.005,0,0,0,1.077-.66l1.476.739.894-1.79-1.484-.742A2.9,2.9,0,0,0,46,42Zm-2,1a1,1,0,0,1-2,0V41a1,1,0,0,0-1-1H40a1,1,0,0,1,0-2h1a3,3,0,0,1,3,3Z"/><path d="M41,54a3,3,0,1,0-3,3A3,3,0,0,0,41,54Zm-4,0a1,1,0,1,1,1,1A1,1,0,0,1,37,54Z"/><path d="M6,25a4,4,0,1,0,4-4A4,4,0,0,0,6,25Zm6,0a2,2,0,1,1-2-2A2,2,0,0,1,12,25Z"/><rect x="3" y="30" width="2" height="2"/><rect x="15" y="18" width="2" height="2"/><rect x="44" y="51" width="2" height="2"/><rect x="45" y="29" width="2" height="2"/></g></svg>
